HIERARCHY
ROOT root
{
	OFFSET 0.000000 0.000000 0.000000
	CHANNELS 6 Xposition Yposition Zposition Zrotation Yrotation Xrotation
	JOINT lhip
	{
		OFFSET 0.058581 -0.082280 -0.017664
		CHANNELS 3 Zrotation Yrotation Xrotation
		JOINT lknee
		{
			OFFSET 0.043451 -0.386469 0.008037
			CHANNELS 3 Zrotation Yrotation Xrotation
			JOINT lankle
			{
				OFFSET -0.014790 -0.426874 -0.037428
				CHANNELS 3 Zrotation Yrotation Xrotation
				JOINT ltoe
				{
					OFFSET 0.041054 -0.060286 0.122042
					CHANNELS 3 Zrotation Yrotation Xrotation
					End Site
					{
						OFFSET 0.000000 0.000000 0.000000
					}
				}
			}
		}
	}
	JOINT rhip
	{
		OFFSET -0.060310 -0.090513 -0.013543
		CHANNELS 3 Zrotation Yrotation Xrotation
		JOINT rknee
		{
			OFFSET -0.043257 -0.383688 -0.004843
			CHANNELS 3 Zrotation Yrotation Xrotation
			JOINT rankle
			{
				OFFSET 0.019056 -0.420046 -0.034562
				CHANNELS 3 Zrotation Yrotation Xrotation
				JOINT rtoe
				{
					OFFSET -0.034840 -0.062106 0.130323
					CHANNELS 3 Zrotation Yrotation Xrotation
					End Site
					{
						OFFSET 0.000000 0.000000 0.000000
					}
				}
			}
		}
	}
	JOINT lowerback
	{
		OFFSET 0.004439 0.124404 -0.038385
		CHANNELS 3 Zrotation Yrotation Xrotation
		JOINT upperback
		{
			OFFSET 0.004488 0.137956 0.026820
			CHANNELS 3 Zrotation Yrotation Xrotation
			JOINT chest
			{
				OFFSET -0.002265 0.056032 0.002855
				CHANNELS 3 Zrotation Yrotation Xrotation
				JOINT lowerneck
				{
					OFFSET -0.013390 0.211636 -0.033468
					CHANNELS 3 Zrotation Yrotation Xrotation
					JOINT upperneck
					{
						OFFSET 0.010113 0.088937 0.050410
						CHANNELS 3 Zrotation Yrotation Xrotation
						End Site
						{
							OFFSET 0.000000 0.000000 0.000000
						}
					}
				}
				JOINT lclavicle
				{
					OFFSET 0.071702 0.114000 -0.018898
					CHANNELS 3 Zrotation Yrotation Xrotation
					JOINT lshoulder
					{
						OFFSET 0.122921 0.045205 -0.019046
						CHANNELS 3 Zrotation Yrotation Xrotation
						JOINT lelbow
						{
							OFFSET 0.255332 -0.015649 -0.022946
							CHANNELS 3 Zrotation Yrotation Xrotation
							JOINT lwrist
							{
								OFFSET 0.265709 0.012698 -0.007375
								CHANNELS 3 Zrotation Yrotation Xrotation
								End Site
								{
									OFFSET 0.000000 0.000000 0.000000
								}
							}
						}
					}
				}
				JOINT rclavicle
				{
					OFFSET -0.082954 0.112472 -0.023707
					CHANNELS 3 Zrotation Yrotation Xrotation
					JOINT rshoulder
					{
						OFFSET -0.113228 0.046853 -0.008472
						CHANNELS 3 Zrotation Yrotation Xrotation
						JOINT relbow
						{
							OFFSET -0.260127 -0.014369 -0.031269
							CHANNELS 3 Zrotation Yrotation Xrotation
							JOINT rwrist
							{
								OFFSET -0.269108 0.006794 -0.006027
								CHANNELS 3 Zrotation Yrotation Xrotation
								End Site
								{
									OFFSET 0.000000 0.000000 0.000000
								}
							}
						}
					}
				}
			}
		}
	}
}
MOTION
Frames: 8
Frame Time: 0.033333
-0.805902 1.185662 0.947363 80.772869 -5.183997 110.711565 -0.992892 -8.323270 -41.702961 -11.384497 -11.674774 23.333805 7.615794 -0.140347 -12.410349 0.000000 -0.000000 0.000000 -20.466708 -11.766066 -39.908505 -0.494018 7.635137 8.102743 20.309576 -0.585954 8.027955 0.000000 -0.000000 0.000000 2.502433 4.360692 37.065116 -7.337608 -3.919189 -10.942569 -2.576733 1.788347 2.468481 -0.566522 -9.184631 -19.115694 15.081184 -6.765449 1.614169 -10.341113 -36.807893 -12.546360 -46.655079 -45.862100 23.072789 3.775745 -24.900259 -25.022832 52.172813 -2.025717 -24.104562 1.100006 27.029048 -6.501811 23.953691 22.277749 4.794318 -17.311611 40.090596 -27.697272 -18.736113 1.247382 -22.488366 
-0.806239 1.182392 0.947195 80.838818 -4.807906 111.092926 -0.184852 -7.940389 -42.296277 -11.632852 -11.545290 23.605424 7.200383 -0.266778 -12.372410 0.000000 -0.000000 0.000000 -20.111382 -11.733552 -39.714255 -0.122732 7.335478 7.022643 20.181222 -0.998627 8.361530 0.000000 -0.000000 0.000000 2.724393 4.698438 36.947060 -7.208968 -3.271605 -10.499782 -2.467951 2.099001 2.167896 -0.767843 -9.741742 -19.540918 14.735438 -7.566231 1.967491 -10.748413 -37.048422 -12.373318 -47.652457 -45.852502 24.342189 3.932510 -25.301508 -24.393084 51.225259 -2.447523 -24.748969 2.404355 27.513312 -5.826105 20.752306 21.599087 3.405024 -15.914411 39.359322 -27.521925 -18.218018 2.271428 -22.580045 
-0.806587 1.179845 0.947838 80.962661 -4.640741 111.325071 0.091042 -7.882651 -42.526322 -11.517472 -11.762143 23.772470 7.169357 0.075989 -12.563625 0.000000 -0.000000 0.000000 -19.784906 -12.120081 -39.754828 0.266074 7.289931 6.666976 20.452992 -0.827719 8.437627 0.000000 -0.000000 0.000000 2.803538 5.156489 37.195853 -6.898437 -2.904690 -10.667743 -2.077694 2.398227 2.320617 -1.043720 -9.900643 -20.252168 13.947882 -8.476361 2.638738 -11.321820 -37.064461 -12.399364 -48.844604 -46.242225 25.816797 3.984466 -25.280340 -24.526650 51.366602 -2.527464 -24.711429 3.683683 27.828210 -5.343001 17.852403 21.175219 2.450814 -14.974573 38.605957 -27.276771 -17.879398 2.690856 -21.303815 
-0.807481 1.177818 0.948678 81.552205 -4.219855 111.546624 0.523157 -7.765371 -42.957797 -11.479988 -12.247805 24.303995 7.145808 0.088363 -12.794651 0.000000 -0.000000 0.000000 -19.528233 -12.126469 -39.763993 0.708733 7.119487 6.793678 20.101981 -0.991899 8.222422 0.000000 -0.000000 0.000000 3.331099 5.028349 37.198448 -6.481340 -2.473279 -10.359523 -1.743767 2.575626 2.317794 -1.584243 -10.650022 -20.847664 13.206323 -8.913121 2.863461 -11.363982 -36.990150 -12.241317 -49.652964 -46.064060 26.195142 4.623431 -26.600375 -24.493714 50.924725 -2.039634 -25.254970 4.281789 28.382339 -4.773454 15.608272 20.682106 1.172427 -14.616083 38.094378 -27.425980 -17.694664 3.309848 -20.624651 
-0.807797 1.175221 0.949033 81.829684 -3.875417 111.978607 1.003441 -7.552201 -43.351402 -11.379877 -12.668254 24.324864 7.100203 0.494767 -12.511221 0.000000 -0.000000 0.000000 -19.133583 -12.190533 -40.213617 1.054760 7.490116 6.977264 19.862581 -1.324457 8.476502 0.000000 -0.000000 0.000000 3.498497 5.053891 37.162729 -6.087779 -2.050878 -10.089912 -1.495419 2.734151 1.962235 -2.049813 -10.742853 -21.697888 12.538277 -9.377382 3.687544 -11.666347 -36.921671 -12.312517 -50.091612 -45.520763 27.207679 4.974046 -27.982401 -24.838376 51.796071 -0.720423 -25.015460 5.489704 28.756802 -4.366499 13.314171 20.338205 0.612248 -14.074175 37.745731 -28.184509 -17.520259 3.368801 -19.873215 
-0.809053 1.172351 0.949837 82.365860 -3.409522 112.532088 1.761852 -7.180026 -43.875794 -11.344254 -12.811573 24.197345 6.708807 0.023123 -12.589309 0.000000 -0.000000 0.000000 -18.609227 -12.083974 -41.113363 1.199988 7.102093 7.783926 19.980040 -1.297041 8.800719 0.000000 -0.000000 0.000000 3.715155 4.931323 37.128838 -5.545896 -1.780129 -10.216133 -1.090076 2.914564 1.950989 -2.468667 -10.594810 -22.245999 11.917720 -9.957853 3.649028 -11.785970 -36.817717 -12.048110 -50.183847 -45.308312 27.163946 5.320335 -28.931250 -24.419821 49.668501 -1.288661 -25.866755 6.504268 29.016960 -3.656100 11.552449 20.327252 -0.676779 -14.190161 37.230773 -28.222163 -17.325681 3.882776 -19.146499 
-0.809707 1.169694 0.950347 82.763153 -3.179085 113.111369 2.390067 -6.987235 -44.328894 -11.470344 -12.989110 23.933878 6.511651 -0.195291 -12.463117 0.000000 -0.000000 0.000000 -18.555080 -11.943780 -41.807834 1.461466 6.628679 8.419198 20.258871 -1.169992 9.116166 0.000000 -0.000000 0.000000 3.777228 4.896402 37.042489 -5.045519 -1.488336 -9.873192 -0.826827 2.858034 1.571751 -2.565200 -10.401425 -23.060009 11.255606 -10.445612 3.530784 -11.872010 -36.513267 -12.060897 -50.318627 -45.142227 27.673429 5.460651 -29.968043 -24.369248 48.762826 -1.174800 -26.476879 7.342264 29.089531 -3.423814 10.269763 20.468527 -1.010780 -14.768313 36.883878 -28.864953 -16.628415 4.203261 -18.580787 
-0.809922 1.166249 0.950735 83.261331 -2.711535 113.665881 3.025530 -6.556866 -44.564729 -11.327602 -13.494194 23.453132 5.954153 -0.394208 -12.262582 0.000000 -0.000000 0.000000 -18.129856 -11.847855 -42.313777 1.749671 6.191812 8.558988 20.225972 -1.071569 9.348576 0.000000 -0.000000 0.000000 3.965244 4.783828 37.126245 -4.565362 -1.186124 -9.852499 -0.458761 2.889707 0.988201 -2.933402 -10.342579 -23.148939 10.797180 -10.706327 3.533609 -12.367654 -36.704897 -11.577482 -49.834781 -44.353471 27.998181 5.557364 -31.507035 -23.829073 45.898562 0.703009 -28.238242 8.669523 29.481884 -2.730680 8.619262 20.236921 -1.768172 -14.911284 36.673033 -29.294590 -16.691886 4.147761 -18.166668 
